<mxfile host="app.diagrams.net" modified="2023-12-19T09:49:25.176Z" agent="Mozilla/5.0 (Macintosh; Intel Mac OS X 10.15; rv:120.0) Gecko/20100101 Firefox/120.0" version="22.1.11" etag="HUWASN14r0gUYhCORrID" type="github">
  <diagram name="Страница — 1" id="dL64McbXo4oLUuk0J_q7">
    <mxGraphModel>
      <root>
        <mxCell id="0" />
        <mxCell id="1" parent="0" />
      </root>
    </mxGraphModel>
  </diagram>
</mxfile>
